<?xml version="1.0" encoding="utf-8"?>
<!-- Generator: Adobe Illustrator 26.0.2, SVG Export Plug-In . SVG Version: 6.00 Build 0)  -->
<svg version="1.1" id="레이어_1" xmlns="http://www.w3.org/2000/svg" xmlns:xlink="http://www.w3.org/1999/xlink" x="0px"
	 y="0px" viewBox="0 0 192 192" style="enable-background:new 0 0 192 192;" xml:space="preserve">
<style type="text/css">
	.st0{fill:#F9D923;}
	.st1{fill:#DE3163;}
	.st2{fill:#4C86F1;}
	.st3{fill:#8D62E6;}
</style>
<g>
	<path class="st0" d="M68.8,136.1L68.8,136.1c-4.4,5.8-7.1,13.1-7.1,21c0,19.1,15.5,34.6,34.6,34.6c19.1,0,34.6-15.5,34.6-34.6
		c0-7.9-2.6-15.1-7.1-20.9l0,0l-0.8-1c0,0-0.1-0.1-0.1-0.1l-26.7-33.1L69.7,135c0,0-0.1,0.1-0.1,0.1L68.8,136.1z"/>
	<path class="st1" d="M123.9,55.9L123.9,55.9c4.4-5.8,7.1-13.1,7.1-21c0-19.1-15.5-34.6-34.6-34.6S61.7,15.8,61.7,34.9
		c0,7.9,2.6,15.1,7.1,20.9l0,0l0.8,1c0,0,0.1,0.1,0.1,0.1l26.7,33.1L123,57c0,0,0.1-0.1,0.1-0.1L123.9,55.9z"/>
	<path class="st2" d="M55.6,68.5L55.6,68.5c-5.8-4.4-13.1-7.1-21-7.1C15.5,61.4,0,76.9,0,96c0,19.1,15.5,34.6,34.6,34.6
		c7.9,0,15.1-2.6,20.9-7.1l0,0l1-0.8c0,0,0.1-0.1,0.1-0.1L89.8,96L56.6,69.3c0,0-0.1-0.1-0.1-0.1L55.6,68.5z"/>
	<path class="st3" d="M136.4,123.5L136.4,123.5c5.8,4.4,13.1,7.1,21,7.1c19.1,0,34.6-15.5,34.6-34.6s-15.5-34.6-34.6-34.6
		c-7.9,0-15.1,2.6-20.9,7.1l0,0l-1,0.8c0,0-0.1,0.1-0.1,0.1L102.2,96l33.1,26.7c0,0,0.1,0.1,0.1,0.1L136.4,123.5z"/>
</g>
</svg>
