<?xml version="1.0" encoding="utf-8"?>
<!-- Generator: Adobe Illustrator 26.0.2, SVG Export Plug-In . SVG Version: 6.00 Build 0)  -->
<svg version="1.1" id="레이어_1" xmlns="http://www.w3.org/2000/svg" xmlns:xlink="http://www.w3.org/1999/xlink" x="0px"
	 y="0px" viewBox="0 0 305 49" style="enable-background:new 0 0 305 49;" xml:space="preserve">
<style type="text/css">
	.st0{fill:#676C76;}
</style>
<g>
	<path class="st0" d="M17.6,34.6L17.6,34.6c-1.1,1.5-1.8,3.3-1.8,5.3c0,4.8,3.9,8.7,8.7,8.7c4.8,0,8.7-3.9,8.7-8.7
		c0-2-0.7-3.8-1.8-5.3l0,0l-0.2-0.2c0,0,0,0,0,0L24.5,26l-6.7,8.4c0,0,0,0,0,0L17.6,34.6z"/>
	<path class="st0" d="M31.5,14.4L31.5,14.4c1.1-1.5,1.8-3.3,1.8-5.3c0-4.8-3.9-8.7-8.7-8.7s-8.7,3.9-8.7,8.7c0,2,0.7,3.8,1.8,5.3
		l0,0l0.2,0.2c0,0,0,0,0,0l6.7,8.4l6.7-8.4c0,0,0,0,0,0L31.5,14.4z"/>
	<path class="st0" d="M14.2,17.5L14.2,17.5c-1.5-1.1-3.3-1.8-5.3-1.8c-4.8,0-8.7,3.9-8.7,8.7c0,4.8,3.9,8.7,8.7,8.7
		c2,0,3.8-0.7,5.3-1.8l0,0l0.2-0.2c0,0,0,0,0,0l8.4-6.7l-8.4-6.7c0,0,0,0,0,0L14.2,17.5z"/>
	<path class="st0" d="M34.7,31.5L34.7,31.5c1.5,1.1,3.3,1.8,5.3,1.8c4.8,0,8.7-3.9,8.7-8.7s-3.9-8.7-8.7-8.7c-2,0-3.8,0.7-5.3,1.8
		l0,0l-0.2,0.2c0,0,0,0,0,0L26,24.5l8.4,6.7c0,0,0,0,0,0L34.7,31.5z"/>
	<g>
		<path class="st0" d="M54.6,24.3c0-1.8,0.3-3.5,1-5.1c0.7-1.5,1.6-2.9,2.8-4c1.2-1.1,2.6-2,4.2-2.6c1.6-0.6,3.3-0.9,5.2-0.9
			c2.5,0,4.6,0.5,6.4,1.5c1.8,1,3.4,2.5,4.9,4.5l-4.1,3.5c-0.7-1.3-1.7-2.4-2.8-3.2c-1.1-0.8-2.5-1.2-4.2-1.2c-1,0-2,0.2-2.9,0.6
			c-0.9,0.4-1.6,0.9-2.2,1.6c-0.6,0.7-1.1,1.5-1.4,2.4c-0.3,0.9-0.5,1.9-0.5,2.9c0,1,0.2,2,0.5,2.9c0.3,0.9,0.8,1.7,1.4,2.4
			c0.6,0.7,1.4,1.2,2.2,1.6c0.9,0.4,1.8,0.6,2.9,0.6c0.9,0,1.6-0.1,2.3-0.3c0.7-0.2,1.3-0.5,1.9-0.9c0.6-0.4,1.1-0.8,1.6-1.4
			c0.5-0.5,0.9-1.1,1.3-1.8l4,3.6c-1.4,1.9-2.9,3.4-4.8,4.4c-1.8,1-4,1.6-6.6,1.6c-1.8,0-3.6-0.3-5.2-0.9c-1.6-0.6-3-1.5-4.2-2.6
			c-1.2-1.1-2.1-2.4-2.8-4C55,27.9,54.6,26.2,54.6,24.3z"/>
		<path class="st0" d="M96.5,18.5h5.3v17.8h-5.3L96,34.9c-0.8,0.7-1.8,1.2-2.8,1.6c-1.1,0.3-2.1,0.5-3.3,0.5c-1.4,0-2.7-0.3-3.8-0.8
			c-1.2-0.5-2.2-1.1-3-2c-0.8-0.8-1.5-1.8-1.9-3c-0.5-1.1-0.7-2.4-0.7-3.8c0-1.4,0.2-2.7,0.7-3.9c0.5-1.2,1.2-2.2,2-3
			c0.8-0.8,1.8-1.5,3-2c1.1-0.5,2.4-0.7,3.7-0.7c1.2,0,2.2,0.2,3.3,0.5c1,0.3,2,0.8,2.8,1.4L96.5,18.5z M90.9,31.7
			c1.3,0,2.3-0.4,3-1.2c0.8-0.8,1.1-1.8,1.1-3.1c0-1.3-0.4-2.4-1.1-3.2c-0.8-0.8-1.8-1.2-3-1.2c-1.3,0-2.3,0.4-3,1.2
			c-0.8,0.8-1.1,1.8-1.1,3.2c0,1.3,0.4,2.3,1.1,3.1C88.6,31.3,89.6,31.7,90.9,31.7z"/>
		<path class="st0" d="M121.9,36.3h-6.2V25.5c0-0.7-0.2-1.3-0.5-1.7s-0.9-0.7-1.5-0.7c-0.3,0-0.6,0.1-0.8,0.2
			c-0.2,0.2-0.4,0.3-0.6,0.6c-0.2,0.2-0.3,0.5-0.4,0.8c-0.1,0.3-0.2,0.6-0.2,0.9v10.8h-6.2V18.5h5.3l0.5,1.3
			c0.6-0.7,1.3-1.1,2.1-1.4c0.8-0.3,1.5-0.4,2.3-0.5c0.9,0,1.8,0.2,2.6,0.6c0.8,0.4,1.6,1,2.2,1.8c0.7-0.9,1.6-1.6,2.6-1.9
			c1-0.4,2-0.5,2.9-0.5c0.8,0,1.6,0.2,2.4,0.6c0.8,0.3,1.5,0.8,2.1,1.5c0.6,0.7,1.1,1.4,1.4,2.4c0.4,0.9,0.5,2,0.5,3.1v10.9H126
			V25.5c0-0.7-0.2-1.3-0.5-1.7c-0.4-0.5-0.9-0.7-1.5-0.7c-0.6,0-1.1,0.2-1.4,0.6c-0.3,0.4-0.5,0.9-0.6,1.5V36.3z"/>
		<path class="st0" d="M141,18.5l0.5,1.3c0.9-0.6,1.8-1.1,2.8-1.4c1-0.3,2.1-0.5,3.3-0.5c1.3,0,2.6,0.2,3.7,0.7c1.1,0.5,2.1,1.1,3,2
			c0.8,0.8,1.5,1.8,2,3c0.5,1.2,0.7,2.5,0.7,3.9c0,1.4-0.2,2.6-0.7,3.8c-0.5,1.1-1.1,2.1-2,3c-0.8,0.8-1.8,1.5-3,2
			c-1.2,0.5-2.4,0.7-3.8,0.8c-1,0-2-0.1-3-0.4c-1-0.3-1.8-0.7-2.7-1.3v8h-6.2V18.5H141z M146.7,31.7c1.3,0,2.3-0.4,3-1.2
			c0.8-0.8,1.1-1.8,1.1-3.1c0-1.3-0.4-2.4-1.1-3.2c-0.8-0.8-1.8-1.2-3-1.2c-1.3,0-2.3,0.4-3,1.2c-0.8,0.8-1.1,1.8-1.1,3.2
			c0,1.3,0.4,2.3,1.1,3.1C144.4,31.3,145.4,31.7,146.7,31.7z"/>
		<path class="st0" d="M172.8,35c-0.7,0.6-1.5,1-2.5,1.4c-0.9,0.3-1.8,0.5-2.6,0.5c-1.2,0-2.3-0.2-3.3-0.5c-1-0.4-1.9-0.8-2.7-1.5
			c-0.8-0.6-1.3-1.4-1.8-2.3c-0.4-0.9-0.6-1.8-0.6-2.9V18.5h6.2v9.3c0,0.7,0.1,1.4,0.3,1.9c0.2,0.5,0.4,0.9,0.7,1.2
			c0.3,0.3,0.6,0.5,1,0.7c0.4,0.1,0.8,0.2,1.2,0.2c0.9,0,1.7-0.3,2.3-0.8c0.6-0.5,1.1-1.3,1.3-2.2V18.5h6.2v17.8h-5.3L172.8,35z"/>
		<path class="st0" d="M193.7,23.4c-0.5-0.2-0.9-0.4-1.4-0.5c-0.4-0.1-0.9-0.2-1.3-0.3c-0.4-0.1-0.8-0.1-1.1-0.1
			c-1.4,0-2.1,0.3-2.1,1c0,0.3,0.2,0.6,0.5,0.8c0.3,0.2,0.7,0.3,1.3,0.5c1,0.3,2,0.6,3,0.9c1,0.3,1.8,0.7,2.6,1.2
			c0.8,0.5,1.3,1,1.8,1.7c0.4,0.7,0.7,1.5,0.7,2.5c0,1.1-0.2,2-0.6,2.8c-0.4,0.8-1,1.4-1.7,1.9c-0.7,0.5-1.6,0.9-2.6,1.1
			c-1,0.2-2,0.4-3.1,0.4c-1.5,0-3-0.2-4.4-0.6c-1.4-0.4-2.8-1.1-4.1-2l2.2-4.3c0.4,0.3,0.8,0.5,1.3,0.8c0.5,0.2,1,0.5,1.5,0.6
			c0.5,0.2,1,0.3,1.6,0.4c0.5,0.1,1,0.2,1.5,0.2c0.8,0,1.4-0.1,1.8-0.2c0.3-0.2,0.5-0.5,0.5-0.9c0-0.4-0.2-0.7-0.7-1
			c-0.5-0.2-1-0.4-1.7-0.6c-1.1-0.3-2.1-0.6-3-0.9c-0.9-0.3-1.7-0.7-2.3-1.2c-0.6-0.5-1.1-1-1.5-1.7c-0.4-0.7-0.5-1.5-0.6-2.4
			c0-1,0.2-1.9,0.6-2.6c0.5-0.7,1-1.3,1.8-1.8c0.7-0.5,1.6-0.8,2.5-1c0.9-0.2,1.9-0.3,2.8-0.3c1.6,0,3,0.2,4.3,0.7
			c1.3,0.5,2.4,1,3.4,1.6l-2,4.1C194.6,23.8,194.2,23.6,193.7,23.4z"/>
		<path class="st0" d="M212.3,12.4l3.1,13.8l2.9-13.8h6.1l2.7,14.1l3.2-14.1h6.2l-6.1,23.9h-6.2l-3-15.1l-2.9,15.1h-6.2l-6.1-23.9
			H212.3z"/>
		<path class="st0" d="M235.6,27.5c0-1.5,0.3-2.9,0.9-4.1c0.6-1.2,1.3-2.3,2.3-3.1c1-0.8,2.1-1.5,3.4-2c1.3-0.4,2.7-0.7,4.1-0.7
			c1.5,0,2.9,0.2,4.2,0.7c1.3,0.5,2.4,1.1,3.4,1.9c1,0.8,1.7,1.9,2.3,3.1c0.6,1.2,0.8,2.6,0.8,4.1c0,1.5-0.3,2.9-0.8,4.1
			c-0.6,1.2-1.3,2.2-2.3,3.1c-1,0.9-2.1,1.5-3.4,2c-1.3,0.5-2.7,0.7-4.2,0.7c-1.5,0-2.8-0.2-4.1-0.7c-1.3-0.5-2.4-1.1-3.4-1.9
			c-1-0.8-1.7-1.9-2.3-3.1C235.9,30.3,235.6,29,235.6,27.5z M246.3,32.1c0.7,0,1.3-0.1,1.9-0.4c0.6-0.2,1-0.6,1.4-1
			c0.4-0.4,0.7-0.9,0.9-1.5c0.2-0.6,0.3-1.2,0.3-1.8c0-0.7-0.1-1.3-0.3-1.9c-0.2-0.6-0.5-1.1-0.9-1.5c-0.4-0.4-0.9-0.7-1.4-1
			c-0.6-0.2-1.2-0.3-1.9-0.3c-0.7,0-1.3,0.1-1.9,0.4c-0.5,0.2-1,0.6-1.4,1c-0.4,0.4-0.7,0.9-0.9,1.5c-0.2,0.6-0.3,1.2-0.3,1.8
			c0,0.7,0.1,1.3,0.3,1.8c0.2,0.6,0.5,1,0.9,1.5c0.4,0.4,0.9,0.7,1.4,1C245,32,245.6,32.1,246.3,32.1z"/>
		<path class="st0" d="M264.9,20.1c0.5-0.5,1-0.9,1.7-1.2c0.7-0.3,1.4-0.4,2.2-0.4h3.9l-1.1,5.2h-3.6c-0.4,0-0.7,0.1-1,0.2
			c-0.3,0.2-0.6,0.4-0.8,0.7c-0.2,0.3-0.4,0.6-0.6,1c-0.1,0.4-0.2,0.8-0.2,1.2v9.5h-6.2V18.5h5.3L264.9,20.1z"/>
		<path class="st0" d="M281.2,12.4v23.9h-6.2V12.4H281.2z"/>
		<path class="st0" d="M298.6,12.4h6.2v23.9h-5.3l-0.5-1.4c-0.8,0.7-1.8,1.2-2.8,1.6c-1.1,0.3-2.1,0.5-3.3,0.5
			c-1.4,0-2.7-0.3-3.8-0.8c-1.2-0.5-2.2-1.1-3-2c-0.8-0.8-1.5-1.8-1.9-3c-0.5-1.1-0.7-2.4-0.7-3.8c0-1.4,0.2-2.7,0.7-3.9
			c0.5-1.2,1.2-2.2,2-3c0.8-0.8,1.8-1.5,3-2c1.1-0.5,2.4-0.7,3.7-0.7c1.1,0,2.1,0.1,3,0.4c0.9,0.3,1.8,0.7,2.7,1.2V12.4z
			 M293.8,31.7c1.3,0,2.3-0.4,3-1.2c0.8-0.8,1.1-1.8,1.1-3.1c0-1.3-0.4-2.4-1.1-3.2c-0.8-0.8-1.8-1.2-3-1.2s-2.3,0.4-3,1.2
			c-0.8,0.8-1.1,1.8-1.1,3.2c0,1.3,0.4,2.3,1.1,3.1C291.6,31.3,292.6,31.7,293.8,31.7z"/>
	</g>
</g>
</svg>
